<svg width="44" height="44" viewBox="0 0 44 44" fill="none" xmlns="http://www.w3.org/2000/svg">
<g clip-path="url(#clip0_34_6491)">
<g filter="url(#filter0_d_34_6491)">
<path fill-rule="evenodd" clip-rule="evenodd" d="M9 3C5.68629 3 3 5.68629 3 9V35C3 38.3137 5.68629 41 9 41H35C38.3137 41 41 38.3137 41 35V9C41 5.68629 38.3137 3 35 3H9ZM18.7523 18.5989C18.7523 19.7809 19.6607 20.5399 22.4852 21.2741C25.3096 22.0082 28.3332 23.2151 28.3332 26.7489C28.3332 29.2996 26.4046 30.7056 23.9783 31.166V33.8412H20.2455V31.1411C17.8565 30.631 15.8159 29.1005 15.6666 26.3756H18.4039C18.5408 27.8438 19.5487 28.9885 22.1119 28.9885C24.8617 28.9885 25.4714 27.6198 25.4714 26.7613C25.4714 25.6041 24.8493 24.5092 21.7386 23.7626C18.2671 22.9289 15.8905 21.498 15.8905 18.6238C15.8905 16.2223 17.8316 14.6546 20.2455 14.132V11.4443H23.9783V14.1693C26.5788 14.8039 27.8853 16.7698 27.9724 18.91H25.2225C25.1479 17.3546 24.3267 16.297 22.1119 16.297C20.0091 16.297 18.7523 17.2426 18.7523 18.5989Z" fill="white" fill-opacity="0.4" shape-rendering="crispEdges"/>
</g>
</g>
<defs>
<filter id="filter0_d_34_6491" x="-1" y="3" width="46" height="46" filterUnits="userSpaceOnUse" color-interpolation-filters="sRGB">
<feFlood flood-opacity="0" result="BackgroundImageFix"/>
<feColorMatrix in="SourceAlpha" type="matrix" values="0 0 0 0 0 0 0 0 0 0 0 0 0 0 0 0 0 0 127 0" result="hardAlpha"/>
<feOffset dy="4"/>
<feGaussianBlur stdDeviation="2"/>
<feComposite in2="hardAlpha" operator="out"/>
<feColorMatrix type="matrix" values="0 0 0 0 0 0 0 0 0 0 0 0 0 0 0 0 0 0 0.25 0"/>
<feBlend mode="normal" in2="BackgroundImageFix" result="effect1_dropShadow_34_6491"/>
<feBlend mode="normal" in="SourceGraphic" in2="effect1_dropShadow_34_6491" result="shape"/>
</filter>
<clipPath id="clip0_34_6491">
<rect width="44" height="44" fill="white"/>
</clipPath>
</defs>
</svg>
