<!-- Generated by IcoMoon.io -->
<svg version="1.1" xmlns="http://www.w3.org/2000/svg" width="24" height="32" viewBox="0 0 24 32">
<path d="M24 19c0 1.104-0.896 2-2 2h-14.363c-0.388 0.525-0.638 1.175-0.638 1.869 0 1.725 1.406 3.131 3.131 3.131h3.040c1.271 0 2.516-0.516 3.414-1.414 0.781-0.781 2.047-0.781 2.828 0s0.781 2.047 0 2.828c-1.72 1.667-3.883 2.586-6.239 2.586h-3.044c-3.932 0-7.131-3.2-7.131-7.131 0-0.637 0.091-1.264 0.257-1.868h-1.257c-1.104 0-2-0.896-2-2s0.896-2 2-2h4.104c0.098-0.067 0.189-0.143 0.29-0.206l3.274-1.795h-7.669c-1.104 0-2-0.896-2-2s0.896-2 2-2h14.363c0.331-0.525 0.637-1.175 0.637-1.869 0-1.725-1.406-3.131-3.131-3.131h-3.037c-1.275 0-2.519 0.519-3.419 1.412-0.781 0.781-2.047 0.781-2.828 0s-0.781-2.047 0-2.828c1.666-1.666 3.884-2.584 6.247-2.584h3.040c3.929 0 7.129 3.199 7.129 7.131 0 0.637-0.091 1.264-0.257 1.868h1.257c1.104 0 2 0.896 2 2s-0.896 2-2 2h-4.104c-0.098 0.067-0.189 0.143-0.29 0.206l-3.274 1.795h7.669c1.106 0 2 0.894 2 2z"></path>
</svg>
